<?xml version="1.0" standalone="no"?>
<!DOCTYPE svg PUBLIC "-//W3C//DTD SVG 20010904//EN"
 "http://www.w3.org/TR/2001/REC-SVG-20010904/DTD/svg10.dtd">
<svg version="1.0" xmlns="http://www.w3.org/2000/svg"
 width="1280.000000pt" height="111.000000pt" viewBox="0 0 1280.000000 111.000000"
 preserveAspectRatio="xMidYMid meet">

<g transform="translate(0.000000,111.000000) scale(0.100000,-0.100000)"
fill="#000000" stroke="none">
<path d="M0 891 l0 -219 52 -12 c742 -162 1298 -253 1778 -291 200 -16 708
-16 875 -1 471 45 790 104 1675 312 760 179 1099 246 1580 314 332 48 822 93
1180 109 36 2 -1556 4 -3537 5 l-3603 2 0 -219z"/>
<path d="M8315 1099 c1226 -65 2295 -258 4238 -763 l247 -64 0 419 0 419
-2317 -1 c-1294 -1 -2252 -5 -2168 -10z"/>
</g>
</svg>
